<svg xmlns="http://www.w3.org/2000/svg" version="1.1" xmlns:xlink="http://www.w3.org/1999/xlink" xmlns:svgjs="http://svgjs.com/svgjs" width="1440" height="560" preserveAspectRatio="none" viewBox="0 0 1440 560"><g mask="url(&quot;#SvgjsMask1706&quot;)" fill="none"><rect width="1440" height="560" x="0" y="0" fill="url(#SvgjsLinearGradient1707)"></rect><path d="M 0,482 C 72,414.8 216,161.6 360,146 C 504,130.4 576,392 720,404 C 864,416 936,204.8 1080,206 C 1224,207.2 1368,369.2 1440,410L1440 560L0 560z" fill="rgba(199, 21, 235, 1)"></path><path d="M 0,328 C 72,267.2 216,28.6 360,24 C 504,19.4 576,271.8 720,305 C 864,338.2 936,157 1080,190 C 1224,223 1368,414 1440,470L1440 560L0 560z" fill="rgba(238, 13, 227, 1)"></path></g><defs><mask id="SvgjsMask1706"><rect width="1440" height="560" fill="#ffffff"></rect></mask><linearGradient x1="50%" y1="100%" x2="50%" y2="0%" gradientUnits="userSpaceOnUse" id="SvgjsLinearGradient1707"><stop stop-color="#0e2a47" offset="0"></stop><stop stop-color="rgba(16, 32, 214, 1)" offset="1"></stop></linearGradient></defs></svg>